<?xml version="1.0" encoding="UTF-8"?>
<svg xmlns="http://www.w3.org/2000/svg" xmlns:xlink="http://www.w3.org/1999/xlink" width="17pt" height="17pt" viewBox="0 0 17 17" version="1.1">
<g id="surface1">
<path style=" stroke:none;fill-rule:nonzero;fill:rgb(36.078431%,41.960784%,75.294118%);fill-opacity:1;" d="M 8.5 0.175781 C 3.804688 0.175781 0 3.996094 0 8.710938 C 0 12.480469 2.433594 15.679688 5.8125 16.808594 C 6.238281 16.886719 6.394531 16.625 6.394531 16.398438 C 6.394531 16.195312 6.386719 15.65625 6.382812 14.945312 C 4.019531 15.460938 3.519531 13.800781 3.519531 13.800781 C 3.132812 12.816406 2.574219 12.554688 2.574219 12.554688 C 1.804688 12.023438 2.632812 12.035156 2.632812 12.035156 C 3.484375 12.09375 3.933594 12.914062 3.933594 12.914062 C 4.691406 14.21875 5.925781 13.839844 6.410156 13.621094 C 6.484375 13.070312 6.707031 12.695312 6.949219 12.480469 C 5.0625 12.265625 3.078125 11.535156 3.078125 8.265625 C 3.078125 7.332031 3.410156 6.570312 3.953125 5.972656 C 3.863281 5.757812 3.574219 4.890625 4.035156 3.714844 C 4.035156 3.714844 4.75 3.488281 6.371094 4.589844 C 7.050781 4.402344 7.777344 4.308594 8.5 4.304688 C 9.222656 4.308594 9.949219 4.402344 10.628906 4.589844 C 12.25 3.488281 12.964844 3.71875 12.964844 3.71875 C 13.429688 4.890625 13.136719 5.757812 13.050781 5.976562 C 13.59375 6.570312 13.921875 7.332031 13.921875 8.265625 C 13.921875 11.542969 11.9375 12.265625 10.042969 12.476562 C 10.347656 12.738281 10.621094 13.261719 10.621094 14.054688 C 10.621094 15.199219 10.609375 16.117188 10.609375 16.398438 C 10.609375 16.625 10.761719 16.890625 11.195312 16.808594 C 14.566406 15.675781 17 12.480469 17 8.710938 C 17 3.996094 13.195312 0.175781 8.5 0.175781 Z M 8.5 0.175781 "/>
</g>
</svg>
