<?xml version="1.0" encoding="UTF-8"?>
<svg xmlns="http://www.w3.org/2000/svg" xmlns:xlink="http://www.w3.org/1999/xlink" width="17pt" height="17pt" viewBox="0 0 17 17" version="1.1">
<defs>
<radialGradient id="radial0" gradientUnits="userSpaceOnUse" cx="217.76" cy="3290.99" fx="217.76" fy="3290.99" r="4271.92" gradientTransform="matrix(0.00505246,0,0,0.00505246,0,0)">
<stop offset="0.09" style="stop-color:rgb(98.039216%,56.078431%,12.941176%);stop-opacity:1;"/>
<stop offset="0.78" style="stop-color:rgb(84.705882%,17.647059%,49.411765%);stop-opacity:1;"/>
</radialGradient>
<radialGradient id="radial1" gradientUnits="userSpaceOnUse" cx="2330.61" cy="3182.95" fx="2330.61" fy="3182.95" r="3759.33" gradientTransform="matrix(0.00505246,0,0,0.00505246,0,0)">
<stop offset="0.64" style="stop-color:rgb(54.901961%,22.745098%,66.666667%);stop-opacity:0;"/>
<stop offset="1" style="stop-color:rgb(54.901961%,22.745098%,66.666667%);stop-opacity:1;"/>
</radialGradient>
</defs>
<g id="surface1">
<path style=" stroke:none;fill-rule:nonzero;fill:url(#radial0);" d="M 4.3125 16.941406 C 3.300781 16.894531 2.75 16.726562 2.386719 16.582031 C 1.902344 16.394531 1.554688 16.171875 1.191406 15.808594 C 0.828125 15.445312 0.605469 15.101562 0.417969 14.617188 C 0.273438 14.25 0.105469 13.703125 0.0625 12.691406 C 0.0117188 11.597656 0 11.269531 0 8.5 C 0 5.730469 0.0117188 5.40625 0.0585938 4.3125 C 0.105469 3.300781 0.273438 2.75 0.417969 2.386719 C 0.605469 1.902344 0.832031 1.554688 1.191406 1.191406 C 1.554688 0.828125 1.898438 0.605469 2.382812 0.417969 C 2.75 0.273438 3.300781 0.105469 4.308594 0.0585938 C 5.402344 0.0117188 5.730469 0 8.5 0 C 11.269531 0 11.597656 0.0117188 12.691406 0.0585938 C 13.699219 0.105469 14.25 0.273438 14.617188 0.417969 C 15.097656 0.605469 15.445312 0.828125 15.808594 1.191406 C 16.171875 1.554688 16.394531 1.902344 16.582031 2.382812 C 16.726562 2.75 16.894531 3.300781 16.941406 4.308594 C 16.988281 5.402344 17 5.730469 17 8.5 C 17 11.269531 16.988281 11.597656 16.941406 12.691406 C 16.894531 13.703125 16.726562 14.25 16.582031 14.617188 C 16.394531 15.101562 16.171875 15.445312 15.808594 15.808594 C 15.445312 16.171875 15.097656 16.394531 14.617188 16.582031 C 14.25 16.726562 13.699219 16.894531 12.691406 16.941406 C 11.597656 16.988281 11.269531 17 8.5 17 C 5.730469 17 5.402344 16.992188 4.3125 16.941406 "/>
<path style=" stroke:none;fill-rule:nonzero;fill:url(#radial1);" d="M 4.3125 16.941406 C 3.300781 16.894531 2.75 16.726562 2.386719 16.582031 C 1.902344 16.394531 1.554688 16.171875 1.191406 15.808594 C 0.828125 15.445312 0.605469 15.101562 0.417969 14.617188 C 0.273438 14.25 0.105469 13.703125 0.0625 12.691406 C 0.0117188 11.597656 0 11.269531 0 8.5 C 0 5.730469 0.0117188 5.40625 0.0585938 4.3125 C 0.105469 3.300781 0.273438 2.75 0.417969 2.386719 C 0.605469 1.902344 0.832031 1.554688 1.191406 1.191406 C 1.554688 0.828125 1.898438 0.605469 2.382812 0.417969 C 2.75 0.273438 3.300781 0.105469 4.308594 0.0585938 C 5.402344 0.0117188 5.730469 0 8.5 0 C 11.269531 0 11.597656 0.0117188 12.691406 0.0585938 C 13.699219 0.105469 14.25 0.273438 14.617188 0.417969 C 15.097656 0.605469 15.445312 0.828125 15.808594 1.191406 C 16.171875 1.554688 16.394531 1.902344 16.582031 2.382812 C 16.726562 2.75 16.894531 3.300781 16.941406 4.308594 C 16.988281 5.402344 17 5.730469 17 8.5 C 17 11.269531 16.988281 11.597656 16.941406 12.691406 C 16.894531 13.703125 16.726562 14.25 16.582031 14.617188 C 16.394531 15.101562 16.171875 15.445312 15.808594 15.808594 C 15.445312 16.171875 15.097656 16.394531 14.617188 16.582031 C 14.25 16.726562 13.699219 16.894531 12.691406 16.941406 C 11.597656 16.988281 11.269531 17 8.5 17 C 5.730469 17 5.402344 16.992188 4.3125 16.941406 "/>
<path style=" stroke:none;fill-rule:nonzero;fill:rgb(100%,100%,100%);fill-opacity:1;" d="M 6.414062 8.535156 C 6.414062 7.375 7.355469 6.429688 8.519531 6.429688 C 9.679688 6.429688 10.621094 7.375 10.621094 8.535156 C 10.621094 9.699219 9.679688 10.640625 8.519531 10.640625 C 7.355469 10.640625 6.414062 9.699219 6.414062 8.535156 M 5.273438 8.535156 C 5.273438 10.328125 6.726562 11.777344 8.519531 11.777344 C 10.308594 11.777344 11.761719 10.328125 11.761719 8.535156 C 11.761719 6.746094 10.308594 5.292969 8.519531 5.292969 C 6.726562 5.292969 5.273438 6.746094 5.273438 8.535156 M 11.132812 5.164062 C 11.132812 5.582031 11.46875 5.921875 11.890625 5.921875 C 12.308594 5.921875 12.648438 5.582031 12.648438 5.164062 C 12.648438 4.746094 12.308594 4.40625 11.890625 4.40625 C 11.472656 4.40625 11.132812 4.746094 11.132812 5.164062 M 5.964844 13.675781 C 5.351562 13.648438 5.015625 13.546875 4.792969 13.460938 C 4.5 13.34375 4.289062 13.207031 4.066406 12.988281 C 3.847656 12.765625 3.707031 12.554688 3.59375 12.261719 C 3.507812 12.039062 3.40625 11.703125 3.378906 11.089844 C 3.347656 10.421875 3.339844 10.222656 3.339844 8.535156 C 3.339844 6.851562 3.347656 6.648438 3.378906 5.984375 C 3.40625 5.367188 3.507812 5.035156 3.59375 4.8125 C 3.710938 4.515625 3.847656 4.304688 4.066406 4.085938 C 4.289062 3.863281 4.496094 3.726562 4.792969 3.613281 C 5.015625 3.527344 5.351562 3.421875 5.964844 3.394531 C 6.632812 3.363281 6.832031 3.359375 8.519531 3.359375 C 10.203125 3.359375 10.402344 3.363281 11.070312 3.394531 C 11.6875 3.421875 12.019531 3.527344 12.242188 3.613281 C 12.539062 3.726562 12.746094 3.863281 12.96875 4.085938 C 13.191406 4.304688 13.328125 4.515625 13.441406 4.8125 C 13.527344 5.035156 13.632812 5.367188 13.660156 5.984375 C 13.691406 6.652344 13.695312 6.851562 13.695312 8.535156 C 13.695312 10.222656 13.691406 10.421875 13.660156 11.089844 C 13.628906 11.703125 13.527344 12.039062 13.441406 12.261719 C 13.328125 12.554688 13.191406 12.765625 12.96875 12.988281 C 12.75 13.207031 12.539062 13.34375 12.242188 13.460938 C 12.019531 13.546875 11.6875 13.648438 11.070312 13.675781 C 10.402344 13.707031 10.203125 13.714844 8.519531 13.714844 C 6.832031 13.714844 6.632812 13.707031 5.964844 13.675781 M 5.914062 2.257812 C 5.242188 2.289062 4.78125 2.394531 4.382812 2.550781 C 3.964844 2.714844 3.613281 2.929688 3.261719 3.28125 C 2.910156 3.632812 2.695312 3.984375 2.535156 4.398438 C 2.378906 4.800781 2.269531 5.261719 2.242188 5.933594 C 2.210938 6.605469 2.203125 6.820312 2.203125 8.535156 C 2.203125 10.25 2.210938 10.464844 2.242188 11.140625 C 2.269531 11.8125 2.378906 12.273438 2.535156 12.671875 C 2.695312 13.089844 2.910156 13.441406 3.261719 13.792969 C 3.613281 14.140625 3.964844 14.359375 4.382812 14.519531 C 4.78125 14.675781 5.242188 14.78125 5.914062 14.8125 C 6.585938 14.84375 6.800781 14.851562 8.519531 14.851562 C 10.234375 14.851562 10.449219 14.84375 11.121094 14.8125 C 11.792969 14.78125 12.253906 14.675781 12.65625 14.519531 C 13.070312 14.359375 13.421875 14.144531 13.773438 13.792969 C 14.125 13.441406 14.339844 13.089844 14.5 12.671875 C 14.65625 12.273438 14.765625 11.8125 14.796875 11.140625 C 14.824219 10.464844 14.832031 10.25 14.832031 8.535156 C 14.832031 6.820312 14.824219 6.605469 14.796875 5.933594 C 14.765625 5.261719 14.65625 4.800781 14.5 4.398438 C 14.339844 3.984375 14.125 3.632812 13.773438 3.28125 C 13.421875 2.929688 13.070312 2.714844 12.65625 2.550781 C 12.253906 2.394531 11.792969 2.289062 11.121094 2.257812 C 10.449219 2.226562 10.234375 2.21875 8.519531 2.21875 C 6.804688 2.21875 6.589844 2.226562 5.914062 2.257812 "/>
</g>
</svg>
