<?xml version="1.0" encoding="UTF-8"?>
<svg xmlns="http://www.w3.org/2000/svg" xmlns:xlink="http://www.w3.org/1999/xlink" width="17pt" height="17pt" viewBox="0 0 17 17" version="1.1">
<g id="surface1">
<path style=" stroke:none;fill-rule:nonzero;fill:rgb(1.176471%,60.784314%,89.803922%);fill-opacity:1;" d="M 17 8.5 C 17 13.195312 13.195312 17 8.5 17 C 3.804688 17 0 13.195312 0 8.5 C 0 3.804688 3.804688 0 8.5 0 C 13.195312 0 17 3.804688 17 8.5 Z M 17 8.5 "/>
<path style=" stroke:none;fill-rule:nonzero;fill:rgb(100%,100%,100%);fill-opacity:1;" d="M 3.890625 8.316406 L 12.085938 5.15625 C 12.464844 5.019531 12.796875 5.25 12.675781 5.824219 L 11.28125 12.398438 C 11.175781 12.863281 10.898438 12.976562 10.511719 12.757812 L 8.386719 11.191406 L 7.363281 12.179688 C 7.25 12.292969 7.152344 12.386719 6.933594 12.386719 L 7.085938 10.226562 L 11.023438 6.667969 C 11.195312 6.515625 10.984375 6.429688 10.757812 6.582031 L 5.890625 9.644531 L 3.792969 8.992188 C 3.335938 8.847656 3.328125 8.535156 3.890625 8.316406 Z M 3.890625 8.316406 "/>
</g>
</svg>
