<?xml version="1.0" encoding="UTF-8"?>
<svg xmlns="http://www.w3.org/2000/svg" xmlns:xlink="http://www.w3.org/1999/xlink" width="17pt" height="17pt" viewBox="0 0 17 17" version="1.1">
<defs>
<clipPath id="clip1">
  <path d="M 6.027344 0.421875 L 10.984375 0.421875 C 15.511719 0.421875 16.578125 1.496094 16.578125 6.027344 L 16.578125 10.984375 C 16.578125 15.511719 15.503906 16.578125 10.972656 16.578125 L 6.015625 16.578125 C 1.488281 16.578125 0.421875 15.503906 0.421875 10.972656 L 0.421875 6.015625 C 0.421875 1.496094 1.496094 0.421875 6.027344 0.421875 Z M 6.027344 0.421875 "/>
</clipPath>
</defs>
<g id="surface1">
<path style=" stroke:none;fill-rule:evenodd;fill:rgb(31.764706%,50.588235%,72.156863%);fill-opacity:1;" d="M 6.027344 0.421875 L 10.984375 0.421875 C 15.511719 0.421875 16.578125 1.496094 16.578125 6.027344 L 16.578125 10.984375 C 16.578125 15.511719 15.503906 16.578125 10.972656 16.578125 L 6.015625 16.578125 C 1.488281 16.578125 0.421875 15.503906 0.421875 10.972656 L 0.421875 6.015625 C 0.421875 1.496094 1.496094 0.421875 6.027344 0.421875 Z M 6.027344 0.421875 "/>
<g clip-path="url(#clip1)" clip-rule="nonzero">
<rect x="0" y="0" width="17" height="17" style="fill:rgb(31.764706%,50.588235%,72.156863%);fill-opacity:1;stroke:none;"/>
</g>
<path style=" stroke:none;fill-rule:evenodd;fill:rgb(100%,100%,100%);fill-opacity:1;" d="M 13.652344 5.984375 C 13.726562 5.730469 13.652344 5.554688 13.296875 5.554688 L 12.117188 5.554688 C 11.816406 5.554688 11.679688 5.714844 11.605469 5.890625 C 11.605469 5.890625 11.007812 7.355469 10.15625 8.296875 C 9.878906 8.574219 9.761719 8.660156 9.609375 8.660156 C 9.535156 8.660156 9.425781 8.574219 9.425781 8.324219 L 9.425781 5.984375 C 9.425781 5.679688 9.339844 5.554688 9.089844 5.554688 L 7.238281 5.554688 C 7.050781 5.554688 6.933594 5.699219 6.933594 5.824219 C 6.933594 6.109375 7.355469 6.175781 7.40625 6.96875 L 7.40625 8.703125 C 7.40625 9.082031 7.339844 9.148438 7.1875 9.148438 C 6.792969 9.148438 5.816406 7.683594 5.242188 6 C 5.125 5.6875 5.015625 5.554688 4.710938 5.554688 L 3.535156 5.554688 C 3.199219 5.554688 3.128906 5.714844 3.128906 5.890625 C 3.128906 6.203125 3.527344 7.75 4.992188 9.796875 C 5.96875 11.191406 7.339844 11.949219 8.585938 11.949219 C 9.332031 11.949219 9.425781 11.78125 9.425781 11.496094 L 9.425781 10.4375 C 9.425781 10.097656 9.492188 10.03125 9.738281 10.03125 C 9.914062 10.03125 10.207031 10.117188 10.90625 10.789062 C 11.707031 11.589844 11.839844 11.949219 12.289062 11.949219 L 13.464844 11.949219 C 13.800781 11.949219 13.96875 11.78125 13.871094 11.453125 C 13.761719 11.125 13.382812 10.644531 12.875 10.074219 C 12.597656 9.746094 12.1875 9.402344 12.066406 9.222656 C 11.890625 8.996094 11.941406 8.894531 12.066406 8.703125 C 12.066406 8.695312 13.507812 6.671875 13.652344 5.984375 Z M 13.652344 5.984375 "/>
</g>
</svg>
